<svg height="512" viewBox="0 0 64 64" width="512" xmlns="http://www.w3.org/2000/svg"><g id="Flat"><g id="Color"><path d="m54 3-1.537 11.531a8 8 0 0 1 -3.323 5.484l-9.122 6.424a13.923 13.923 0 0 1 -8.018 2.54 13.922 13.922 0 0 1 -8.017-2.54l-9.122-6.424a8 8 0 0 1 -3.323-5.484l-1.538-11.531zm5.752 50.047c-10.54-4.183-17.023-20.194-14.332-30.417l-5.4 3.81a13.931 13.931 0 0 1 -16.04 0l-5.4-3.81c2.687 10.2-3.776 26.228-14.334 30.417a1.981 1.981 0 0 0 -1.246 1.845v6.1h58v-6.1a1.981 1.981 0 0 0 -1.247-1.845z" fill="#ffcebf"/><path d="m37.8 38.336c-1.328-.794-3.248-.1-4.555 1.214a1.785 1.785 0 0 1 -2.488 0c-1.307-1.311-3.227-2.008-4.555-1.214-1.644.887-1.919 3.32-.614 5.433 1.28 2.1 3.762 3.155 5.388 2.188a1.986 1.986 0 0 1 2.05 0c1.626.967 4.108-.089 5.388-2.188 1.304-2.113 1.029-4.546-.614-5.433z" fill="#b3291c"/><circle cx="32" cy="51" fill="#0c96da" r="1"/><path d="m59 3-.675 3.375a4 4 0 0 1 -1.7 2.544l-3.742 2.495 1.117-8.414zm-49 0h-5l.675 3.375a4 4 0 0 0 1.7 2.544l3.743 2.5zm22 28.979a16.835 16.835 0 0 0 9.744-3.087l3.086-2.173a19.124 19.124 0 0 1 .589-4.089l-5.4 3.81a13.931 13.931 0 0 1 -16.04 0l-5.4-3.81a19.168 19.168 0 0 1 .589 4.088l3.087 2.174a16.835 16.835 0 0 0 9.745 3.087zm-4.518-15.1a10.492 10.492 0 0 1 4.518-.752 10.521 10.521 0 0 1 4.516.748 1 1 0 0 0 .977-1.745 11.709 11.709 0 0 0 -5.493-1 11.709 11.709 0 0 0 -5.493 1 1 1 0 0 0 .976 1.745zm6.244 1.163a6.149 6.149 0 0 1 -3.454 0 1 1 0 1 0 -.546 1.924 8.19 8.19 0 0 0 4.546 0 1 1 0 0 0 -.546-1.924z" fill="#ffa78f"/><path d="m32 32c-6.617 0-12 4.486-12 10 0 4.2 3.178 7.978 7.906 9.4a1 1 0 0 0 .578-1.915c-3.879-1.165-6.484-4.175-6.484-7.485 0-4.411 4.486-8 10-8s10 3.589 10 8c0 3.31-2.6 6.32-6.484 7.489a1 1 0 0 0 .289 1.958 1.013 1.013 0 0 0 .289-.043c4.728-1.426 7.906-5.204 7.906-9.404 0-5.514-5.383-10-12-10z" fill="#0c96da"/></g></g></svg>