<?xml version="1.0"?>
<svg xmlns="http://www.w3.org/2000/svg" viewBox="0 0 64 64" width="512" height="512"><g id="_28-Fever" data-name="28-Fever"><path d="M48,21H46V17a35.034,35.034,0,0,1-4,1.329h0V20a1,1,0,0,1-1,1H23a1,1,0,0,1-1-1V18s-1,3-4,3H16a2,2,0,0,0-2,2v3a4,4,0,0,0,1.6,3.2L18,31a14.167,14.167,0,0,0,28,0l2.4-1.8A4,4,0,0,0,50,26V23A2,2,0,0,0,48,21Z" style="fill:#f48a83"/><path d="M32,55c-7.42,0-9.35-4.26-9.84-6.13l2.28-.52a2.034,2.034,0,0,0,.59-.24C25.24,48.75,26.59,52,32,52s6.76-3.25,6.97-3.89a2.034,2.034,0,0,0,.59.24l2.28.52C41.35,50.74,39.42,55,32,55Z" style="fill:#f8fcff"/><path d="M60,56.19V63H4V56.19a4.009,4.009,0,0,1,3.11-3.9l15.05-3.42C22.65,50.74,24.58,55,32,55s9.35-4.26,9.84-6.13l15.05,3.42A4.009,4.009,0,0,1,60,56.19Z" style="fill:#3ab8c6"/><path d="M41,21H23a1,1,0,0,1-1-1V12a1,1,0,0,1,1-1h2v7H39V11h2a1,1,0,0,1,1,1v8A1,1,0,0,1,41,21Z" style="fill:#e6eaed"/><rect x="25" y="11" width="14" height="7" style="fill:#7ae2ff"/><path d="M50,15v8a2.006,2.006,0,0,0-2-2H46V17a34.844,34.844,0,0,1-4,1.33V12a1,1,0,0,0-1-1H23a1,1,0,0,0-1,1v6s-1,3-4,3H16a2.006,2.006,0,0,0-2,2V15A14,14,0,0,1,28,1h8A14,14,0,0,1,50,15Z" style="fill:#52575c"/><path d="M38,46.4a1.982,1.982,0,0,0,.97,1.71C38.76,48.75,37.41,52,32,52s-6.76-3.25-6.97-3.89A1.982,1.982,0,0,0,26,46.4V41.65a13.962,13.962,0,0,0,12-.01Z" style="fill:#f5c8ab"/><path d="M9,4v6H3V4A3,3,0,0,1,9,4Z" style="fill:#f8fcff"/><path d="M9,24.02a5,5,0,1,1-6,0V10H9V24.02Z" style="fill:#f48a83"/><path d="M5,3A2,2,0,0,1,6.55,1.055,2.98,2.98,0,0,0,3,4v6H5Z" style="fill:#e6eaed"/><path d="M4,27a3.963,3.963,0,0,1,1-2.62V10H3V24.02a4.989,4.989,0,1,0,7.542,6.044A3.978,3.978,0,0,1,4,27Z" style="fill:#d4665f"/><path d="M38,41.64a13.962,13.962,0,0,1-12,.01V46.4a1.982,1.982,0,0,1-.97,1.71,4.6,4.6,0,0,0,.587,1.135L38,43.467Z" style="fill:#e8ae8b"/><path d="M29.518,54.819,39.75,52.412a7.648,7.648,0,0,0,2.09-3.542l-2.28-.52a2.034,2.034,0,0,1-.59-.24C38.76,48.75,37.41,52,32,52s-6.76-3.25-6.97-3.89a2.034,2.034,0,0,1-.59.24l-2.28.52C22.59,50.511,24.132,53.992,29.518,54.819Z" style="fill:#e6eaed"/><path d="M39.75,52.412l8.684-2.044-6.594-1.5A7.648,7.648,0,0,1,39.75,52.412Z" style="fill:#2494a1"/><path d="M16,62a5.05,5.05,0,0,1,3.894-4.916l9.624-2.265c-5.386-.827-6.928-4.308-7.358-5.949L7.11,52.29A4.009,4.009,0,0,0,4,56.19V63H17A1,1,0,0,1,16,62Z" style="fill:#2494a1"/><path d="M41,11a1,1,0,0,1,1,1v.746c1.985.149,4.138.236,6.474.248a15.944,15.944,0,0,0-.656-2.017C35.554,10.646,28.96,5.247,26,1.81A15.962,15.962,0,0,0,20.33,5.1C21.834,6.84,24.951,9.292,31.2,11H41Z" style="fill:#5d6369"/><rect x="27" y="12" width="10" height="5" style="fill:#80f2ff"/><rect x="26" y="19" width="12" height="2" rx="1" style="fill:#f5f9fc"/><path d="M39,25a5.019,5.019,0,0,0,2-.39V25c0,1.66-.9,3-2,3s-2-1.34-2-3v-.45A3.884,3.884,0,0,0,39,25Z" style="fill:#3d4145"/><path d="M27,25c0,1.66-.9,3-2,3s-2-1.34-2-3v-.39A5.019,5.019,0,0,0,25,25a3.884,3.884,0,0,0,2-.45Z" style="fill:#3d4145"/><ellipse cx="32" cy="31" rx="1" ry="2" style="fill:#c2534c"/><rect x="30.5" y="39" width="1" height="2" rx="0.5" style="fill:#de766f"/><rect x="32.5" y="39" width="1" height="2" rx="0.5" style="fill:#de766f"/><path d="M48.96,28.7a1.9,1.9,0,0,1,.04.41,2.126,2.126,0,0,1-1.22,1.92l-2.1.97v.01L35.04,36.94A4.346,4.346,0,0,0,33,36.09v-.04l12.68-8.68a2.026,2.026,0,0,1,.38-.21A2.127,2.127,0,0,1,48.96,28.7Z" style="fill:#d4665f"/><path d="M43.906,28.585,33,36.05v.04a4.5,4.5,0,0,1,1.594.553l10.363-6.217Z" style="fill:#d4665f"/><path d="M34.594,36.643a3.923,3.923,0,0,1,.446.3l10.64-4.93V32l.14-.065-.863-1.509Z" style="fill:#c2534c"/><path d="M48.96,28.7a2.091,2.091,0,0,0-.792-1.257,1.994,1.994,0,0,1-.967,1.636l-2.244,1.347.863,1.509,1.96-.9A2.126,2.126,0,0,0,49,29.11,1.9,1.9,0,0,0,48.96,28.7Z" style="fill:#e6eaed"/><path d="M47.2,29.079a1.994,1.994,0,0,0,.967-1.636,2.111,2.111,0,0,0-2.108-.283,2.026,2.026,0,0,0-.38.21l-1.774,1.215,1.051,1.841Z" style="fill:#f8fcff"/><path d="M57.108,51.316,42.994,48.109l0-.041-.269-.019-2.951-.67A1,1,0,0,1,39,46.4V42.268a15.072,15.072,0,0,0,7.682-9.63l1.514-.7A3.1,3.1,0,0,0,50,29a5,5,0,0,0,1-3V15A15.017,15.017,0,0,0,36,0H28A15.017,15.017,0,0,0,13,15V26a5.024,5.024,0,0,0,2,4l2.076,1.557A15.028,15.028,0,0,0,25,42.271V46.4a1,1,0,0,1-.778.975l-2.96.673-.26.017,0,.041L6.892,51.316A4.977,4.977,0,0,0,3,56.193V63H5V56.193a2.984,2.984,0,0,1,2.335-2.925l14.181-3.224C22.438,52.393,24.99,56,32,56s9.561-3.606,10.484-5.955l14.181,3.223A2.984,2.984,0,0,1,59,56.193V63h2V56.193A4.977,4.977,0,0,0,57.108,51.316Zm-9.754-21.2-12.21,5.672L46.24,28.2a1.113,1.113,0,0,1,1.064-.113,1.107,1.107,0,0,1,.05,2.035ZM28,2h8A13.015,13.015,0,0,1,49,15v5.184A2.966,2.966,0,0,0,48,20H47V17a1,1,0,0,0-1.394-.919c-.011,0-.979.412-2.606.915V12a2,2,0,0,0-2-2H23a2,2,0,0,0-2,2v5.813A3.366,3.366,0,0,1,18,20H16a2.966,2.966,0,0,0-1,.184V15A13.015,13.015,0,0,1,28,2ZM26,12H38v5H26Zm-1,7H39a1,1,0,0,0,1-1V12h1l0,8H23V12h1v6A1,1,0,0,0,25,19ZM18.99,30.858a1,1,0,0,0-.39-.658l-2.4-1.8A3.014,3.014,0,0,1,15,26V23a1,1,0,0,1,1-1h2a4.815,4.815,0,0,0,3.2-1.151A2,2,0,0,0,23,22H41a2,2,0,0,0,2-2v-.913c.8-.233,1.469-.454,2-.64V21a1,1,0,0,0,1,1h2a1,1,0,0,1,1,1v3a2.973,2.973,0,0,1-.109.759,3.045,3.045,0,0,0-3.78-.211l-12.4,8.488C32.481,35.014,32.247,35,32,35a5.316,5.316,0,0,0-4.895,2.553l1.783.907A3.392,3.392,0,0,1,32,37a3.4,3.4,0,0,1,3.1,1.447l1.79-.894a2.808,2.808,0,0,0-.175-.288l7.5-3.482A13.153,13.153,0,0,1,27,41v0h0A13.042,13.042,0,0,1,18.99,30.858ZM32,44a15.1,15.1,0,0,0,5-.856V46.4a2.985,2.985,0,0,0,.749,1.977C37.207,49.327,35.725,51,32,51s-5.207-1.673-5.749-2.621A2.98,2.98,0,0,0,27,46.4V43.141A15.118,15.118,0,0,0,32,44Zm0,10c-5.632,0-7.742-2.6-8.531-4.4l1.043-.237C25.311,50.771,27.312,53,32,53s6.689-2.228,7.487-3.636l1.044.237C39.74,51.4,37.63,54,32,54Z"/><path d="M36,25.045C36.021,27.266,37.329,29,39,29c1.622,0,2.892-1.637,2.983-3.763a3.9,3.9,0,0,0,.724-.53l-1.4-1.426A3.46,3.46,0,0,1,39,24c-1.841,0-1.989-.857-2-1.028L36,23H35A2.838,2.838,0,0,0,36,25.045Zm3.861.9C39.666,26.6,39.289,27,39,27s-.671-.4-.868-1.069A6.392,6.392,0,0,0,39,26,6.678,6.678,0,0,0,39.864,25.943Z"/><path d="M28,25.045A2.838,2.838,0,0,0,29,23l-2-.028c-.012.171-.16,1.028-2,1.028a3.46,3.46,0,0,1-2.3-.719l-1.4,1.426a3.9,3.9,0,0,0,.724.53C22.108,27.363,23.378,29,25,29,26.671,29,27.979,27.266,28,25.045ZM25,27c-.289,0-.666-.4-.864-1.057A6.678,6.678,0,0,0,25,26a6.392,6.392,0,0,0,.868-.069C25.671,26.6,25.291,27,25,27Z"/><path d="M12,28a5.931,5.931,0,0,0-2-4.449V4A4,4,0,0,0,2,4V23.551A5.931,5.931,0,0,0,0,28a6,6,0,0,0,12,0ZM6,2A2,2,0,0,1,8,4V9H4V4A2,2,0,0,1,6,2ZM2,28a3.964,3.964,0,0,1,1.6-3.18,1,1,0,0,0,.4-.8V11H8v2H6v2H8v2H6v2H8v2H6v2H8v1.022a1,1,0,0,0,.4.8A3.964,3.964,0,0,1,10,28a4,4,0,0,1-8,0Z"/></g></svg>
