<svg id="Layer_1" enable-background="new 0 0 512 512" height="512" viewBox="0 0 512 512" width="512" xmlns="http://www.w3.org/2000/svg"><g><path d="m510.62 96.59-.04-.11c-3.72-10.8-13.5-17.78-24.93-17.78h-180.23c-.5-20.68-3.33-41.24-8.44-61.22l-.03-.12c-1.64-6.02-5.3-10.79-10.58-13.79-5.33-3.1-11.3-3.91-17.34-2.31l-3.4.94c-11.92 3.25-19.11 15.6-16.04 27.51 4.08 15.99 6.37 32.44 6.86 49.01h-22.61c-.5-20.68-3.33-41.24-8.44-61.22l-.03-.12c-1.64-6.02-5.3-10.79-10.58-13.79-5.33-3.1-11.29-3.91-17.33-2.31l-3.4.94c-11.92 3.25-19.11 15.6-16.04 27.51 4.08 15.99 6.37 32.44 6.86 49.01h-24.38c-42.69 0-82.95 16.72-113.34 47.08-30.42 30.32-47.16 70.53-47.16 113.18v206.08c0 13.03 7 24.31 18.79 30.2 4.78 2.32 9.81 3.47 14.8 3.47 7.25 0 14.42-2.42 20.63-7.16 11.44-8.82 22.3-19.86 32.81-30.55 17.47-17.76 35.53-36.13 56.3-44.31 14.5-5.69 28.37-11.47 41.68-17.36 14.03 11.12 31.37 17.21 49.42 17.21 6.85 0 13.58-.88 20.13-2.59-3.61 28.75-12.77 56.68-27.02 82.03-5.92 10.75-2.15 24.52 8.4 30.7l3.29 1.83c3.53 2 7.24 3 11.09 3 2.02 0 4.08-.28 6.18-.83 5.9-1.61 10.64-5.32 13.72-10.75 22.93-40.67 35.05-86.98 35.05-133.93 0-16.96-1.59-33.85-4.7-50.31 5.07-3.54 10.02-7.12 14.82-10.75 40.27-30.4 68.02-61.11 94.86-90.8 26.01-28.78 52.91-58.54 91.52-88.35 8.94-6.91 12.41-18.39 8.85-29.24z" fill="#f47c7c"/><g><g><path d="m57.49 207.12c-.97 0-1.96-.18-2.92-.56-4.11-1.62-6.14-6.26-4.52-10.37 14.27-36.34 45.42-63.38 83.33-72.34 4.3-1.02 8.61 1.65 9.63 5.95s-1.65 8.61-5.95 9.63c-32.8 7.75-59.76 31.16-72.11 62.61-1.25 3.16-4.27 5.08-7.46 5.08z" fill="#e94444"/></g></g><path d="m510.58 96.48c-3.72-10.8-13.5-17.78-24.93-17.78h-180.19c25.25 45.94 25.13 95.19 25 142.83-.01 3.3-.02 6.58-.02 9.85 0 31.14-11.09 61.22-30.57 84.82 5.31-3.7 10.49-7.44 15.51-11.24 40.27-30.4 68.02-61.11 94.86-90.8 26.01-28.78 52.91-58.54 91.52-88.35 8.94-6.91 12.42-18.38 8.85-29.24z" fill="#e94444"/><path d="m299.88 316.21c11.92-14.45 20.7-31.32 25.71-49.38-7.92 6.85-16.34 13.71-25.4 20.54-44.98 33.96-100.8 65.16-172.06 91.75-43.86 16.37-66.37 70.04-79.51 95.96 1.93-.98 3.81-2.13 5.61-3.5 11.44-8.82 22.3-19.86 32.81-30.55 17.47-17.76 35.53-36.13 56.3-44.31 62.88-24.67 114.3-51.11 156.54-80.51z" fill="#ee6161"/><path d="m510.58 96.48c-2.54-7.37-7.89-12.95-14.67-15.76 2.67 10.32-.88 20.96-9.35 27.5-38.61 29.81-65.51 59.57-91.52 88.35-20.8 23.01-42.15 46.63-69.46 70.25-5.02 18.06-13.79 34.93-25.71 49.38 5.31-3.7 10.49-7.44 15.51-11.24 40.27-30.4 68.02-61.11 94.86-90.8 26.01-28.78 52.91-58.54 91.52-88.35 8.94-6.91 12.42-18.38 8.85-29.24z" fill="#d83131"/><g><g><path clip-rule="evenodd" d="m160.49 136.72c4.37 0 8.03-3.66 8.03-8.02s-3.66-8.02-8.03-8.02-8.03 3.66-8.03 8.02c-.01 4.36 3.66 8.02 8.03 8.02z" fill="#e94444" fill-rule="evenodd"/></g></g><path d="m254.55 393.99c1.16-9.25 1.76-18.58 1.76-27.94 0-7.17-.36-14.37-1.08-21.79-21.41 12.17-44.75 23.84-70.22 35.11 14.03 11.12 31.37 17.21 49.42 17.21 6.85-.01 13.58-.88 20.12-2.59z" fill="#8aaadc"/><path d="m296.98 17.48-.03-.12c-1.64-6.02-5.3-10.79-10.58-13.79-5.33-3.1-11.3-3.91-17.34-2.31l-3.4.94c-11.92 3.25-19.11 15.6-16.04 27.51 4.08 15.99 6.37 32.44 6.86 49.01h48.97c-.5-20.7-3.33-41.26-8.44-61.24z" fill="#8aaadc"/><path d="m225.37 17.35c-1.64-6.02-5.3-10.79-10.58-13.79-5.33-3.1-11.29-3.91-17.33-2.31l-3.4.94c-11.92 3.25-19.11 15.6-16.04 27.51 4.08 15.99 6.37 32.44 6.86 49.01h48.97c-.5-20.68-3.33-41.24-8.44-61.22z" fill="#e94444"/><path d="m255.23 344.26c.72 7.41 1.08 14.62 1.08 21.79 0 38.46-9.94 76.47-28.77 109.98-5.92 10.75-2.15 24.52 8.4 30.7l3.29 1.83c3.53 2 7.24 3 11.09 3 2.02 0 4.08-.28 6.18-.83 5.9-1.61 10.64-5.32 13.72-10.75 22.93-40.67 35.05-86.98 35.05-133.93 0-16.96-1.59-33.85-4.7-50.31-14.07 9.81-29.15 19.31-45.34 28.52z" fill="#e94444"/><path d="m266.56 3.6c5.28 3.03 8.93 7.85 10.58 13.93l.03.13c5.04 19.93 7.85 40.42 8.41 61.05h19.85c-.5-20.68-3.33-41.24-8.44-61.22l-.03-.12c-1.64-6.02-5.3-10.79-10.58-13.79-5.33-3.1-11.3-3.91-17.34-2.31l-3.4.94c-.38.1-.75.21-1.12.34.69.29 1.37.65 2.04 1.05z" fill="#7398d4"/><g fill="#d83131"><path d="m194.98 3.59c5.28 3.03 8.93 7.85 10.58 13.93l.03.13c5.04 19.93 7.85 40.42 8.41 61.05h19.85c-.5-20.68-3.33-41.24-8.44-61.22l-.03-.12c-1.64-6.02-5.3-10.79-10.58-13.79-5.33-3.1-11.29-3.91-17.33-2.31l-3.4.94c-.38.1-.75.21-1.12.33.68.31 1.36.67 2.03 1.06z"/><path d="m300.57 315.73c-5.77 4.03-11.73 8.01-17.85 11.93 1.8 12.65 2.73 25.5 2.73 38.38 0 46.95-12.12 93.26-35.05 133.93-2.37 4.17-5.72 7.32-9.83 9.29 3.12 1.53 6.38 2.29 9.74 2.29 2.02 0 4.08-.28 6.18-.83 5.9-1.61 10.64-5.32 13.72-10.75 22.93-40.67 35.05-86.98 35.05-133.93 0-16.95-1.59-33.85-4.69-50.31z"/></g></g></svg>