<svg id="Capa_1" enable-background="new 0 0 512 512" height="512" viewBox="0 0 512 512" width="512" xmlns="http://www.w3.org/2000/svg"><g><path d="m256 304-80 175h-131c-24.81 0-45-20.19-45-45v-19s37.77-48.04 37.77-111-37.77-111-37.77-111v-7.91c0-15.81 8.45-30.65 22.06-38.71l58.94-34.93v-31.45c0-8.28 6.72-15 15-15h80z" fill="#fd9d40"/><path d="m351 193s-29.32 65.81-29.32 116.82 29.32 105.18 29.32 105.18v19c0 24.81-20.19 45-45 45h-130v-414h80c8.28 0 15 6.72 15 15v31.51l58.15 34.89c13.48 8.08 21.85 22.87 21.85 38.59z" fill="#f48931"/><path d="m227.38 304-51.38 111h-176v-222h176z" fill="#fcbc40"/><path d="m176 193h175v222h-175z" fill="#fd9d40"/><path d="m280 257h-48c-8.284 0-15 6.716-15 15s6.716 15 15 15h9v49c0 8.284 6.716 15 15 15s15-6.716 15-15v-49h9c8.284 0 15-6.716 15-15s-6.716-15-15-15z" fill="#d5e8fe"/><path d="m186.53 304-10.53 47c-8.28 0-15-6.72-15-15v-64c0-8.28 6.72-15 15-15z" fill="#edf5ff"/><path d="m191 272v64c0 8.28-6.72 15-15 15v-94c8.28 0 15 6.72 15 15z" fill="#d5e8fe"/><path d="m125.267 257.955c-7.759-2.908-16.403 1.021-19.312 8.778l-9.955 26.547-9.955-26.547c-2.908-7.758-11.558-11.686-19.312-8.778-7.757 2.909-11.688 11.555-8.778 19.312l24 64c2.195 5.854 7.792 9.733 14.045 9.733s11.85-3.879 14.045-9.733l24-64c2.909-7.757-1.022-16.403-8.778-19.312z" fill="#edf5ff"/><path d="m212.06 47.5-36.06 47.5h-120c-8.28 0-15-6.72-15-15v-65c0-8.28 6.72-15 15-15h120z" fill="#fcbc40"/><path d="m311 15v65c0 8.28-6.72 15-15 15h-120v-95h120c8.28 0 15 6.72 15 15z" fill="#fd9d40"/><circle cx="400" cy="400" fill="#fddd41" r="112"/><path d="m409.99 422.93c-3.14 1.37-6.51 2.07-9.99 2.07-13.79 0-25-11.21-25-25s11.21-25 25-25c3.48 0 6.85.7 9.99 2.07 7.6 3.32 16.44-.14 19.76-7.74 3.31-7.59-.15-16.43-7.74-19.75-6.96-3.04-14.37-4.58-22.01-4.58-30.33 0-55 24.67-55 55s24.67 55 55 55c7.64 0 15.05-1.54 22.01-4.58 7.59-3.32 11.05-12.16 7.74-19.75-3.32-7.59-12.17-11.06-19.76-7.74z" fill="#edf5ff"/></g></svg>